<?xml version="1.0" encoding="utf-8"?>
<!-- Generator: Adobe Illustrator 25.2.3, SVG Export Plug-In . SVG Version: 6.00 Build 0)  -->
<svg version="1.1" id="Capa_1" xmlns="http://www.w3.org/2000/svg" xmlns:xlink="http://www.w3.org/1999/xlink" x="0px" y="0px"
	 viewBox="0 0 500 500" style="enable-background:new 0 0 500 500;" xml:space="preserve">
<style type="text/css">
	.st0{fill:#09363C;}
</style>
<ellipse class="st0" cx="245.9" cy="185.9" rx="147" ry="185.9"/>
<path class="st0" d="M29.7,418c0,0,190.1-8.9,258.6-1.6"/>
<line class="st0" x1="284.2" y1="365.3" x2="288.3" y2="416.4"/>
<path class="st0" d="M444,500H56c-30.9,0-56-25.1-56-56v0c0-30.9,25.1-56,56-56h388c30.9,0,56,25.1,56,56v0
	C500,474.9,474.9,500,444,500z"/>
<path class="st0" d="M441,400.2c-0.6,0-151.9,0-151.9,0l-1.1-64.1C291.4,340.4,345.9,361.4,441,400.2z"/>
<path class="st0" d="M316.4,349.2c3.3,4.3,57.8,25.3,153,64.1"/>
<path class="st0" d="M63.1,396.1c0.6,0,151.9,0,151.9,0l1.1-64.1C212.8,336.3,158.2,357.3,63.1,396.1z"/>
<path class="st0" d="M367.7,396.1c-0.6,0-159.9,0-159.9,0l-1.1-80.4C210.2,321.1,267.6,347.5,367.7,396.1z"/>
</svg>
