<?xml version="1.0" encoding="utf-8"?>
<!-- Generator: Adobe Illustrator 25.2.3, SVG Export Plug-In . SVG Version: 6.00 Build 0)  -->
<svg version="1.1" id="Capa_1" xmlns="http://www.w3.org/2000/svg" xmlns:xlink="http://www.w3.org/1999/xlink" x="0px" y="0px"
	 viewBox="0 0 1000 1000" style="enable-background:new 0 0 1000 1000;" xml:space="preserve">
<style type="text/css">
	.st0{fill:#F64203;}
</style>
<g>
	<path class="st0" d="M624.5,222c-17.3,0-31.3-13.7-31.3-30.6V79.3c0-5-4.2-9.1-9.3-9.1H416c-5.1,0-9.3,4.1-9.3,9.1v104.5
		c0,16.9-14,30.6-31.3,30.6s-31.3-13.7-31.3-30.6V79.3c0-38.7,32.2-69.3,71.8-69.3h168c39.6,0,71.8,30.6,71.8,69.3v112.2
		C655.8,208.4,641.8,222,624.5,222"/>
	<path class="st0" d="M694.8,990H305.2c-33.7,0-62.5-25.9-65.6-59l-74.8-729.6c-1.7-16.8,10.8-31.8,28-33.5
		c17.1-1.5,32.5,10.6,34.2,27.4l74.8,729.9c0.2,2,2.3,3.7,3.3,3.7h389.5c1.1,0,3.1-1.7,3.3-3.4l74.9-730.2
		c1.7-16.8,16.9-28.9,34.2-27.4c17.2,1.7,29.7,16.7,28,33.5l-74.9,729.8C757.3,964.1,728.5,990,694.8,990"/>
	<path class="st0" d="M875.8,223.8H124.2c-17.3,0-31.3-13.7-31.3-30.6s14-30.6,31.3-30.6h751.7c17.3,0,31.3,13.7,31.3,30.6
		C907.1,210.2,893.1,223.8,875.8,223.8"/>
</g>
</svg>
