<?xml version="1.0" encoding="utf-8"?>
<!-- Generator: Adobe Illustrator 25.2.3, SVG Export Plug-In . SVG Version: 6.00 Build 0)  -->
<svg version="1.1" id="Capa_1" xmlns="http://www.w3.org/2000/svg" xmlns:xlink="http://www.w3.org/1999/xlink" x="0px" y="0px"
	 viewBox="0 0 500 500" style="enable-background:new 0 0 500 500;" xml:space="preserve">
<g>
	<path d="M250,70c48.1,0,93.3,18.7,127.3,52.7S430,201.9,430,250c0,48.1-18.7,93.3-52.7,127.3S298.1,430,250,430
		c-48.1,0-93.3-18.7-127.3-52.7S70,298.1,70,250c0-48.1,18.7-93.3,52.7-127.3S201.9,70,250,70 M250,50C139.5,50,50,139.5,50,250
		s89.5,200,200,200s200-89.5,200-200S360.5,50,250,50L250,50z"/>
</g>
<g>
	<path d="M451.8,485.8c-4.7,0-9.1-2.1-12.2-5.6l-59.7-70.5c-5.7-6.7-4.8-16.8,1.9-22.5l6.2-5.3c2.9-2.4,6.5-3.8,10.3-3.8
		c4.7,0,9.1,2.1,12.2,5.6l59.7,70.5c2.8,3.2,4.1,7.4,3.7,11.6c-0.4,4.2-2.3,8.1-5.6,10.8l-6.2,5.3
		C459.2,484.5,455.6,485.8,451.8,485.8z"/>
	<path d="M398.3,383.3L398.3,383.3c3.2,0,6.3,1.4,8.3,3.9l59.7,70.5c3.9,4.6,3.3,11.5-1.3,15.4l-6.2,5.3c-2.5,2.1-5.2,2.6-7.1,2.6
		c-3.2,0-6.3-1.4-8.3-3.9l-59.7-70.5c-3.9-4.6-3.3-11.5,1.3-15.4l6.2-5.3C393.8,383.7,396.5,383.3,398.3,383.3 M398.3,373.3
		c-4.8,0-9.6,1.6-13.5,5l-6.2,5.3c-8.8,7.5-9.9,20.7-2.4,29.5l59.7,70.5c4.1,4.9,10,7.4,16,7.4c4.8,0,9.6-1.6,13.5-5l6.2-5.3
		c8.8-7.5,9.9-20.7,2.4-29.5l-59.7-70.5C410.1,375.8,404.2,373.3,398.3,373.3L398.3,373.3z"/>
</g>
</svg>
